<svg width="35" height="35" viewBox="0 0 35 35" fill="none" xmlns="http://www.w3.org/2000/svg">
<path opacity="0.16" d="M4.375 7.29102L15.4379 18.3539C15.9849 18.9007 16.7266 19.2079 17.5 19.2079C18.2734 19.2079 19.0151 18.9007 19.5621 18.3539L30.625 7.29102V24.791C30.625 25.5646 30.3177 26.3064 29.7707 26.8534C29.2237 27.4004 28.4819 27.7077 27.7083 27.7077H7.29167C6.51812 27.7077 5.77625 27.4004 5.22927 26.8534C4.68229 26.3064 4.375 25.5646 4.375 24.791V7.29102Z" fill="#FF0095"/>
<path d="M4.37508 7.29134V5.83301C3.98831 5.83301 3.61737 5.98665 3.34388 6.26014C3.07039 6.53363 2.91675 6.90457 2.91675 7.29134H4.37508ZM30.6251 7.29134H32.0834C32.0834 6.90457 31.9298 6.53363 31.6563 6.26014C31.3828 5.98665 31.0119 5.83301 30.6251 5.83301V7.29134ZM4.37508 8.74967H30.6251V5.83301H4.37508V8.74967ZM29.1667 7.29134V24.7913H32.0834V7.29134H29.1667ZM27.7084 26.2497H7.29175V29.1663H27.7084V26.2497ZM5.83341 24.7913V7.29134H2.91675V24.7913H5.83341ZM7.29175 26.2497C6.90497 26.2497 6.53404 26.096 6.26055 25.8225C5.98706 25.549 5.83341 25.1781 5.83341 24.7913H2.91675C2.91675 25.9517 3.37768 27.0645 4.19816 27.8849C5.01863 28.7054 6.13143 29.1663 7.29175 29.1663V26.2497ZM29.1667 24.7913C29.1667 25.1781 29.0131 25.549 28.7396 25.8225C28.4661 26.096 28.0952 26.2497 27.7084 26.2497V29.1663C28.8687 29.1663 29.9815 28.7054 30.802 27.8849C31.6225 27.0645 32.0834 25.9517 32.0834 24.7913H29.1667Z" fill="#E550A7"/>
<path d="M4.375 7.29102L17.5 20.416L30.625 7.29102" stroke="#8F38C1" stroke-width="2" stroke-linecap="round" stroke-linejoin="round"/>
</svg>
