<svg width="1468" height="525" viewBox="0 0 1468 525" fill="none" xmlns="http://www.w3.org/2000/svg">
<path d="M300.954 3C480.137 8.71593 558.174 149.016 451.669 254.241C423.87 280.223 378.991 297.371 356.886 319.195C334.446 340.76 334.446 366.741 334.446 392.723H233.969C233.969 349.334 233.969 312.7 256.409 286.718C278.514 260.737 323.394 245.408 351.192 228.26C432.243 170.061 412.148 87.6998 300.954 80.9446C274.306 80.9446 248.749 89.1566 229.906 103.774C211.063 118.391 200.477 138.217 200.477 158.889H100C100 117.545 121.172 77.8938 158.858 48.6589C196.544 19.424 247.657 3 300.954 3Z" stroke="#F7BB18" stroke-width="5"/>
<path d="M0 522.5H235.5V431H338V522.5H1468" stroke="#F7BB18" stroke-width="5"/>
</svg>
