<svg width="1926" height="1086" viewBox="0 0 1926 1086" fill="none" xmlns="http://www.w3.org/2000/svg">
<g id="lobby-svg">
<g id="outline">
<path d="M661.583 321.384H681.978V382.582C681.978 389.453 680.298 395.466 676.938 400.619C673.61 405.773 668.947 409.791 662.949 412.675C656.952 415.528 649.965 416.954 641.989 416.954C633.982 416.954 626.979 415.528 620.982 412.675C614.984 409.791 610.321 405.773 606.993 400.619C603.664 395.466 602 389.453 602 382.582V321.384H622.395V380.879C622.395 384.468 623.196 387.659 624.797 390.45C626.43 393.242 628.722 395.435 631.674 397.03C634.626 398.625 638.064 399.423 641.989 399.423C645.946 399.423 649.384 398.625 652.304 397.03C655.256 395.435 657.533 393.242 659.134 390.45C660.767 387.659 661.583 384.468 661.583 380.879V321.384Z" stroke="url(#paint0_linear_740_524)" stroke-width="5"/>
<path d="M719.773 374.759V415.62H699.708V344.943H718.831V357.412H719.679C721.28 353.302 723.965 350.05 727.733 347.657C731.501 345.234 736.07 344.022 741.44 344.022C746.464 344.022 750.844 345.096 754.581 347.243C758.318 349.391 761.222 352.458 763.295 356.446C765.367 360.403 766.403 365.127 766.403 370.618V415.62H746.338V374.115C746.37 369.79 745.239 366.416 742.947 363.992C740.655 361.538 737.499 360.311 733.48 360.311C730.779 360.311 728.393 360.879 726.32 362.014C724.279 363.149 722.678 364.805 721.516 366.983C720.385 369.13 719.804 371.723 719.773 374.759Z" stroke="url(#paint1_linear_740_524)" stroke-width="5"/>
<path d="M848.403 344.943L823.109 415.62H800.501L775.207 344.943H796.403L811.428 395.512H812.182L827.16 344.943H848.403Z" stroke="url(#paint2_linear_740_524)" stroke-width="5"/>
<path d="M890.637 417C883.195 417 876.789 415.528 871.42 412.583C866.081 409.607 861.968 405.405 859.079 399.975C856.19 394.515 854.746 388.057 854.746 380.603C854.746 373.333 856.19 366.952 859.079 361.462C861.968 355.971 866.034 351.691 871.278 348.624C876.554 345.556 882.74 344.022 889.836 344.022C894.609 344.022 899.052 344.774 903.166 346.277C907.311 347.749 910.922 349.973 913.999 352.949C917.108 355.925 919.526 359.667 921.253 364.176C922.98 368.655 923.843 373.901 923.843 379.913V385.297H862.753V373.149H904.956C904.956 370.327 904.328 367.827 903.072 365.649C901.816 363.471 900.073 361.768 897.843 360.541C895.645 359.284 893.086 358.655 890.166 358.655C887.12 358.655 884.419 359.345 882.064 360.725C879.741 362.075 877.92 363.9 876.601 366.201C875.282 368.471 874.607 371.002 874.575 373.793V385.343C874.575 388.84 875.235 391.861 876.554 394.407C877.904 396.953 879.804 398.917 882.253 400.297C884.702 401.677 887.607 402.368 890.967 402.368C893.196 402.368 895.237 402.061 897.09 401.447C898.942 400.834 900.528 399.914 901.847 398.687C903.166 397.46 904.171 395.956 904.862 394.177L923.42 395.374C922.477 399.73 920.546 403.533 917.626 406.785C914.737 410.006 911 412.521 906.416 414.331C901.863 416.11 896.603 417 890.637 417Z" stroke="url(#paint3_linear_740_524)" stroke-width="5"/>
<path d="M938.264 415.62V344.943H958.329V415.62H938.264ZM948.344 335.832C945.361 335.832 942.801 334.866 940.666 332.933C938.562 330.97 937.51 328.623 937.51 325.893C937.51 323.193 938.562 320.877 940.666 318.945C942.801 316.982 945.361 316 948.344 316C951.327 316 953.87 316.982 955.974 318.945C958.109 320.877 959.177 323.193 959.177 325.893C959.177 328.623 958.109 330.97 955.974 332.933C953.87 334.866 951.327 335.832 948.344 335.832Z" stroke="url(#paint4_linear_740_524)" stroke-width="5"/>
<path d="M995.794 321.384V415.62H975.729V321.384H995.794Z" stroke="url(#paint5_linear_740_524)" stroke-width="5"/>
<path d="M1045.6 321.384H1070.75L1097.31 384.698H1098.44L1125.01 321.384H1150.16V415.62H1130.38V354.283H1129.58L1104.61 415.159H1091.14L1066.18 354.053H1065.38V415.62H1045.6V321.384Z" stroke="url(#paint6_linear_740_524)" stroke-width="5"/>
<path d="M1200.88 417C1193.44 417 1187.04 415.528 1181.67 412.583C1176.33 409.607 1172.22 405.405 1169.33 399.975C1166.44 394.515 1164.99 388.057 1164.99 380.603C1164.99 373.333 1166.44 366.952 1169.33 361.462C1172.22 355.971 1176.28 351.691 1181.53 348.624C1186.8 345.556 1192.99 344.022 1200.08 344.022C1204.86 344.022 1209.3 344.774 1213.41 346.277C1217.56 347.749 1221.17 349.973 1224.25 352.949C1227.36 355.925 1229.77 359.667 1231.5 364.176C1233.23 368.655 1234.09 373.901 1234.09 379.913V385.297H1173V373.149H1215.2C1215.2 370.327 1214.58 367.827 1213.32 365.649C1212.06 363.471 1210.32 361.768 1208.09 360.541C1205.89 359.284 1203.33 358.655 1200.41 358.655C1197.37 358.655 1194.67 359.345 1192.31 360.725C1189.99 362.075 1188.17 363.9 1186.85 366.201C1185.53 368.471 1184.85 371.002 1184.82 373.793V385.343C1184.82 388.84 1185.48 391.861 1186.8 394.407C1188.15 396.953 1190.05 398.917 1192.5 400.297C1194.95 401.677 1197.85 402.368 1201.21 402.368C1203.44 402.368 1205.49 402.061 1207.34 401.447C1209.19 400.834 1210.78 399.914 1212.1 398.687C1213.41 397.46 1214.42 395.956 1215.11 394.177L1233.67 395.374C1232.73 399.73 1230.79 403.533 1227.87 406.785C1224.99 410.006 1221.25 412.521 1216.66 414.331C1212.11 416.11 1206.85 417 1200.88 417Z" stroke="url(#paint7_linear_740_524)" stroke-width="5"/>
<path d="M1275.17 416.77C1269.68 416.77 1264.7 415.39 1260.24 412.629C1255.81 409.837 1252.3 405.742 1249.69 400.343C1247.11 394.913 1245.83 388.257 1245.83 380.373C1245.83 372.275 1247.16 365.541 1249.83 360.173C1252.5 354.774 1256.05 350.74 1260.48 348.072C1264.93 345.372 1269.82 344.022 1275.12 344.022C1279.18 344.022 1282.55 344.697 1285.25 346.047C1287.98 347.366 1290.18 349.022 1291.85 351.016C1293.54 352.98 1294.83 354.912 1295.71 356.814H1296.32V321.384H1316.34V415.62H1296.56V404.3H1295.71C1294.77 406.263 1293.43 408.211 1291.7 410.144C1290.01 412.046 1287.79 413.626 1285.06 414.883C1282.36 416.141 1279.07 416.77 1275.17 416.77ZM1281.53 401.171C1284.76 401.171 1287.5 400.312 1289.73 398.595C1291.99 396.846 1293.71 394.407 1294.91 391.278C1296.13 388.149 1296.74 384.484 1296.74 380.281C1296.74 376.079 1296.15 372.428 1294.95 369.33C1293.76 366.232 1292.03 363.839 1289.77 362.152C1287.51 360.465 1284.76 359.621 1281.53 359.621C1278.23 359.621 1275.45 360.495 1273.19 362.244C1270.93 363.992 1269.22 366.416 1268.06 369.514C1266.9 372.612 1266.32 376.201 1266.32 380.281C1266.32 384.392 1266.9 388.027 1268.06 391.186C1269.25 394.315 1270.96 396.769 1273.19 398.549C1275.45 400.297 1278.23 401.171 1281.53 401.171Z" stroke="url(#paint8_linear_740_524)" stroke-width="5"/>
<path d="M1334.16 415.62V344.943H1354.23V415.62H1334.16ZM1344.24 335.832C1341.26 335.832 1338.7 334.866 1336.56 332.933C1334.46 330.97 1333.41 328.623 1333.41 325.893C1333.41 323.193 1334.46 320.877 1336.56 318.945C1338.7 316.982 1341.26 316 1344.24 316C1347.22 316 1349.77 316.982 1351.87 318.945C1354.01 320.877 1355.07 323.193 1355.07 325.893C1355.07 328.623 1354.01 330.97 1351.87 332.933C1349.77 334.866 1347.22 335.832 1344.24 335.832Z" stroke="url(#paint9_linear_740_524)" stroke-width="5"/>
<path d="M1392.26 416.954C1387.64 416.954 1383.53 416.172 1379.92 414.607C1376.31 413.012 1373.45 410.665 1371.34 407.567C1369.27 404.438 1368.24 400.542 1368.24 395.88C1368.24 391.953 1368.97 388.656 1370.45 385.987C1371.93 383.318 1373.93 381.171 1376.48 379.545C1379.02 377.919 1381.91 376.692 1385.14 375.864C1388.41 375.036 1391.83 374.453 1395.41 374.115C1399.62 373.686 1403.01 373.287 1405.59 372.919C1408.16 372.52 1410.03 371.937 1411.19 371.17C1412.35 370.403 1412.93 369.268 1412.93 367.765V367.489C1412.93 364.575 1411.99 362.32 1410.11 360.725C1408.26 359.13 1405.62 358.333 1402.2 358.333C1398.58 358.333 1395.71 359.115 1393.58 360.679C1391.44 362.213 1390.03 364.146 1389.34 366.477L1370.78 365.005C1371.72 360.71 1373.57 356.998 1376.34 353.869C1379.1 350.71 1382.66 348.286 1387.03 346.599C1391.43 344.881 1396.51 344.022 1402.29 344.022C1406.31 344.022 1410.16 344.482 1413.83 345.403C1417.54 346.323 1420.82 347.749 1423.67 349.682C1426.56 351.615 1428.84 354.099 1430.5 357.136C1432.17 360.142 1433 363.747 1433 367.949V415.62H1413.97V405.819H1413.41C1412.24 408.027 1410.69 409.975 1408.74 411.662C1406.8 413.319 1404.46 414.623 1401.72 415.574C1398.99 416.494 1395.84 416.954 1392.26 416.954ZM1398 403.426C1400.96 403.426 1403.56 402.858 1405.82 401.723C1408.08 400.558 1409.86 398.993 1411.14 397.03C1412.43 395.067 1413.08 392.843 1413.08 390.358V382.858C1412.45 383.257 1411.58 383.625 1410.49 383.962C1409.42 384.269 1408.21 384.56 1406.86 384.836C1405.51 385.082 1404.16 385.312 1402.81 385.527C1401.46 385.711 1400.23 385.879 1399.13 386.033C1396.78 386.37 1394.72 386.907 1392.96 387.643C1391.21 388.379 1389.84 389.376 1388.87 390.634C1387.89 391.861 1387.41 393.395 1387.41 395.236C1387.41 397.904 1388.39 399.944 1390.37 401.355C1392.38 402.736 1394.93 403.426 1398 403.426Z" stroke="url(#paint10_linear_740_524)" stroke-width="5"/>
</g>
<path id="border" d="M3 543V3H1923V543" stroke="url(#paint11_linear_740_524)" stroke-width="5"/>
<path id="border_2" d="M3 543V1083H1923V543" stroke="url(#paint12_linear_740_524)" stroke-width="5"/>
<path id="outline_2" d="M538 734.5H221L216 989H534V1049H1255.5V994.5L1599.5 990.5V733.5H1255.5V580.5H538V734.5Z" stroke="url(#paint13_linear_740_524)" stroke-width="5"/>
</g>
<defs>
<linearGradient id="paint0_linear_740_524" x1="602" y1="366.5" x2="1433" y2="366.5" gradientUnits="userSpaceOnUse">
<stop stop-color="#E550A7"/>
<stop offset="1" stop-color="#F7BB18"/>
</linearGradient>
<linearGradient id="paint1_linear_740_524" x1="602" y1="366.5" x2="1433" y2="366.5" gradientUnits="userSpaceOnUse">
<stop stop-color="#E550A7"/>
<stop offset="1" stop-color="#F7BB18"/>
</linearGradient>
<linearGradient id="paint2_linear_740_524" x1="602" y1="366.5" x2="1433" y2="366.5" gradientUnits="userSpaceOnUse">
<stop stop-color="#E550A7"/>
<stop offset="1" stop-color="#F7BB18"/>
</linearGradient>
<linearGradient id="paint3_linear_740_524" x1="602" y1="366.5" x2="1433" y2="366.5" gradientUnits="userSpaceOnUse">
<stop stop-color="#E550A7"/>
<stop offset="1" stop-color="#F7BB18"/>
</linearGradient>
<linearGradient id="paint4_linear_740_524" x1="602" y1="366.5" x2="1433" y2="366.5" gradientUnits="userSpaceOnUse">
<stop stop-color="#E550A7"/>
<stop offset="1" stop-color="#F7BB18"/>
</linearGradient>
<linearGradient id="paint5_linear_740_524" x1="602" y1="366.5" x2="1433" y2="366.5" gradientUnits="userSpaceOnUse">
<stop stop-color="#E550A7"/>
<stop offset="1" stop-color="#F7BB18"/>
</linearGradient>
<linearGradient id="paint6_linear_740_524" x1="602" y1="366.5" x2="1433" y2="366.5" gradientUnits="userSpaceOnUse">
<stop stop-color="#E550A7"/>
<stop offset="1" stop-color="#F7BB18"/>
</linearGradient>
<linearGradient id="paint7_linear_740_524" x1="602" y1="366.5" x2="1433" y2="366.5" gradientUnits="userSpaceOnUse">
<stop stop-color="#E550A7"/>
<stop offset="1" stop-color="#F7BB18"/>
</linearGradient>
<linearGradient id="paint8_linear_740_524" x1="602" y1="366.5" x2="1433" y2="366.5" gradientUnits="userSpaceOnUse">
<stop stop-color="#E550A7"/>
<stop offset="1" stop-color="#F7BB18"/>
</linearGradient>
<linearGradient id="paint9_linear_740_524" x1="602" y1="366.5" x2="1433" y2="366.5" gradientUnits="userSpaceOnUse">
<stop stop-color="#E550A7"/>
<stop offset="1" stop-color="#F7BB18"/>
</linearGradient>
<linearGradient id="paint10_linear_740_524" x1="602" y1="366.5" x2="1433" y2="366.5" gradientUnits="userSpaceOnUse">
<stop stop-color="#E550A7"/>
<stop offset="1" stop-color="#F7BB18"/>
</linearGradient>
<linearGradient id="paint11_linear_740_524" x1="3" y1="273" x2="1923" y2="273" gradientUnits="userSpaceOnUse">
<stop stop-color="#E550A7"/>
<stop offset="1" stop-color="#F7BB18"/>
</linearGradient>
<linearGradient id="paint12_linear_740_524" x1="3" y1="813" x2="1923" y2="813" gradientUnits="userSpaceOnUse">
<stop stop-color="#E550A7"/>
<stop offset="1" stop-color="#F7BB18"/>
</linearGradient>
<linearGradient id="paint13_linear_740_524" x1="907.75" y1="580.5" x2="907.75" y2="1049" gradientUnits="userSpaceOnUse">
<stop stop-color="#E550A7"/>
<stop offset="1" stop-color="#F7BB18"/>
</linearGradient>
</defs>
</svg>
