<svg width="35" height="35" viewBox="0 0 35 35" fill="none" xmlns="http://www.w3.org/2000/svg">
<path opacity="0.3" d="M27.7084 25.4774C26.425 25.3753 25.1563 25.1566 23.9167 24.8212L22.1813 26.5566C23.9313 27.1545 25.7979 27.5337 27.7229 27.6503V25.4774H27.7084ZM7.33545 7.29199C7.4667 9.21699 7.84587 11.0691 8.4292 12.8337L10.1792 11.0837C9.84378 9.85866 9.62503 8.58991 9.53753 7.29199H7.33545Z" fill="#FF0000"/>
<path d="M13.2271 11.0396C12.6748 9.35943 12.3942 7.60192 12.3958 5.83333C12.3958 5.03125 11.7396 4.375 10.9375 4.375H5.83333C5.03125 4.375 4.375 5.03125 4.375 5.83333C4.375 19.5271 15.4729 30.625 29.1667 30.625C29.9688 30.625 30.625 29.9688 30.625 29.1667V24.0771C30.625 23.275 29.9688 22.6188 29.1667 22.6188C27.3583 22.6188 25.5938 22.3271 23.9604 21.7875C23.816 21.7336 23.6624 21.7088 23.5083 21.7146C23.1292 21.7146 22.7646 21.8604 22.4729 22.1375L19.2646 25.3458C15.1309 23.2317 11.7683 19.8691 9.65417 15.7354L12.8625 12.5271C13.2708 12.1188 13.3875 11.55 13.2271 11.0396ZM23.9167 24.8208C25.1563 25.1708 26.425 25.3896 27.7083 25.4771V27.65C25.7833 27.5187 23.9313 27.1396 22.1667 26.5562L23.9167 24.8208ZM8.44375 12.8333C7.84583 11.0688 7.46667 9.21667 7.33542 7.29167H9.52292C9.61824 8.57014 9.843 9.83564 10.1937 11.0688L8.44375 12.8333Z" fill="#F7BB18"/>
</svg>
