<svg width="1654" height="1638" viewBox="0 0 1654 1638" fill="none" xmlns="http://www.w3.org/2000/svg">
<g id="planet-services">
<g id="stars-f">
<circle id="Ellipse 33" cx="955.97" cy="1249.44" r="5" transform="rotate(-8.86007 955.97 1249.44)" fill="#F9D2D2"/>
<circle id="Ellipse 34" cx="1027.12" cy="1205.96" r="5" transform="rotate(-8.86007 1027.12 1205.96)" fill="#F9D2D2"/>
<circle id="Ellipse 35" cx="1088.17" cy="1279.43" r="5" transform="rotate(-8.86007 1088.17 1279.43)" fill="#F9D2D2"/>
<circle id="Ellipse 36" cx="973.7" cy="1142.43" r="5" transform="rotate(-8.86007 973.7 1142.43)" fill="#F9D2D2"/>
</g>
<g id="stars-e">
<circle id="Ellipse 33_2" cx="548.97" cy="868.436" r="5" transform="rotate(-8.86007 548.97 868.436)" fill="#F9D2D2"/>
<circle id="Ellipse 34_2" cx="620.123" cy="824.958" r="5" transform="rotate(-8.86007 620.123 824.958)" fill="#F9D2D2"/>
<circle id="Ellipse 35_2" cx="681.167" cy="898.433" r="5" transform="rotate(-8.86007 681.167 898.433)" fill="#F9D2D2"/>
<circle id="Ellipse 36_2" cx="566.7" cy="761.428" r="5" transform="rotate(-8.86007 566.7 761.428)" fill="#F9D2D2"/>
</g>
<g id="stars-d">
<circle id="Ellipse 33_3" cx="748.97" cy="559.436" r="5" transform="rotate(-8.86007 748.97 559.436)" fill="#F9D2D2"/>
<circle id="Ellipse 34_3" cx="820.123" cy="515.958" r="5" transform="rotate(-8.86007 820.123 515.958)" fill="#F9D2D2"/>
<circle id="Ellipse 35_3" cx="881.167" cy="589.433" r="5" transform="rotate(-8.86007 881.167 589.433)" fill="#F9D2D2"/>
<circle id="Ellipse 36_3" cx="766.7" cy="452.428" r="5" transform="rotate(-8.86007 766.7 452.428)" fill="#F9D2D2"/>
</g>
<g id="main">
<circle id="sun" cx="910.576" cy="850.036" r="158.534" transform="rotate(-50.9458 910.576 850.036)" fill="url(#paint0_linear_565_495)"/>
<circle id="mercury" cx="910.577" cy="850.036" r="209.879" transform="rotate(-50.9458 910.577 850.036)" stroke="url(#paint1_angular_565_495)" stroke-width="3"/>
<circle id="venus" cx="910.577" cy="850.035" r="262.724" transform="rotate(-50.9458 910.577 850.035)" stroke="url(#paint2_angular_565_495)" stroke-width="3"/>
<circle id="earth" cx="910.576" cy="850.037" r="315.569" transform="rotate(-50.9458 910.576 850.037)" stroke="url(#paint3_angular_565_495)" stroke-width="3"/>
<circle id="mars" cx="910.577" cy="850.036" r="368.414" transform="rotate(-50.9458 910.577 850.036)" stroke="url(#paint4_angular_565_495)" stroke-width="3"/>
<circle id="jupiter" cx="910.578" cy="850.036" r="421.258" transform="rotate(-50.9458 910.578 850.036)" stroke="url(#paint5_angular_565_495)" stroke-width="3"/>
<circle id="sarturn" cx="910.577" cy="850.036" r="474.103" transform="rotate(-50.9458 910.577 850.036)" stroke="url(#paint6_angular_565_495)" stroke-width="3"/>
<circle id="neptune" cx="910.578" cy="850.036" r="526.948" transform="rotate(-50.9458 910.578 850.036)" stroke="url(#paint7_angular_565_495)" stroke-width="3"/>
</g>
<g id="printing-serv">
<circle id="prt-el" cx="570.002" cy="573.709" r="89.8721" transform="rotate(-50.9458 570.002 573.709)" fill="#E550A7"/>
<path id="printing" d="M620.64 691.145L613.651 685.474L614.263 684.72L615.071 685.375L615.146 685.282C615.104 685.153 615.056 684.983 615.002 684.77C614.947 684.554 614.943 684.306 614.991 684.026C615.038 683.742 615.196 683.435 615.464 683.104C615.812 682.676 616.225 682.386 616.704 682.233C617.182 682.08 617.693 682.071 618.234 682.207C618.775 682.342 619.313 682.627 619.847 683.06C620.385 683.496 620.777 683.967 621.023 684.47C621.268 684.972 621.366 685.473 621.319 685.972C621.27 686.47 621.074 686.931 620.73 687.354C620.465 687.681 620.199 687.899 619.932 688.007C619.662 688.114 619.415 688.164 619.19 688.157C618.963 688.148 618.78 688.135 618.64 688.117L618.587 688.184L621.274 690.364L620.64 691.145ZM616.815 686.768C617.199 687.08 617.584 687.298 617.968 687.424C618.351 687.548 618.712 687.569 619.053 687.487C619.392 687.403 619.688 687.204 619.943 686.891C620.208 686.565 620.343 686.222 620.348 685.864C620.352 685.502 620.253 685.147 620.049 684.799C619.845 684.446 619.561 684.123 619.2 683.83C618.842 683.54 618.475 683.334 618.099 683.211C617.722 683.085 617.361 683.064 617.014 683.149C616.667 683.229 616.359 683.435 616.091 683.766C615.833 684.084 615.697 684.416 615.683 684.763C615.666 685.108 615.756 685.452 615.954 685.795C616.149 686.136 616.436 686.461 616.815 686.768ZM623.341 683.92L618.258 679.796L618.871 679.041L619.638 679.664L619.681 679.611C619.505 679.314 619.437 678.981 619.477 678.611C619.517 678.242 619.661 677.905 619.908 677.6C619.955 677.543 620.014 677.472 620.086 677.388C620.158 677.303 620.214 677.241 620.254 677.201L621.048 677.845C621.02 677.866 620.961 677.919 620.871 678.003C620.78 678.083 620.693 678.175 620.609 678.278C620.408 678.526 620.281 678.788 620.227 679.066C620.173 679.341 620.191 679.608 620.28 679.867C620.37 680.122 620.529 680.343 620.758 680.529L623.975 683.139L623.341 683.92ZM626.154 680.452L621.071 676.328L621.705 675.548L626.788 679.672L626.154 680.452ZM620.547 675.244C620.423 675.396 620.265 675.485 620.071 675.512C619.88 675.536 619.712 675.489 619.566 675.37C619.42 675.252 619.34 675.097 619.324 674.905C619.309 674.71 619.364 674.537 619.488 674.385C619.611 674.233 619.769 674.145 619.96 674.121C620.153 674.094 620.323 674.14 620.468 674.259C620.614 674.377 620.694 674.533 620.708 674.727C620.724 674.92 620.67 675.092 620.547 675.244ZM625.525 674.979L628.582 677.46L627.949 678.241L622.866 674.117L623.478 673.363L624.272 674.007L624.326 673.941C624.164 673.612 624.104 673.263 624.144 672.893C624.182 672.522 624.357 672.144 624.668 671.76C624.947 671.416 625.262 671.172 625.613 671.029C625.961 670.883 626.336 670.854 626.737 670.942C627.136 671.028 627.551 671.246 627.984 671.597L631.213 674.217L630.58 674.998L627.403 672.421C627.004 672.097 626.608 671.948 626.217 671.975C625.824 671.999 625.481 672.193 625.187 672.554C624.985 672.804 624.858 673.07 624.807 673.355C624.758 673.636 624.791 673.918 624.907 674.198C625.023 674.479 625.229 674.739 625.525 674.979ZM629.082 666.456L629.744 666.993L627.607 669.627L626.945 669.09L629.082 666.456ZM626.35 667.334L626.983 666.553L631.828 670.484C632.049 670.663 632.24 670.765 632.402 670.79C632.564 670.812 632.705 670.787 632.825 670.716C632.944 670.641 633.05 670.546 633.144 670.431C633.213 670.345 633.266 670.271 633.302 670.209C633.336 670.145 633.363 670.094 633.383 670.055L634.213 670.465C634.19 670.535 634.15 670.625 634.093 670.736C634.038 670.848 633.952 670.977 633.834 671.123C633.655 671.344 633.432 671.521 633.165 671.656C632.9 671.789 632.614 671.846 632.307 671.827C632.002 671.807 631.702 671.676 631.406 671.436L626.35 667.334ZM635.118 669.405L630.035 665.281L630.669 664.5L635.752 668.624L635.118 669.405ZM629.51 664.196C629.387 664.349 629.228 664.438 629.035 664.464C628.844 664.488 628.675 664.441 628.53 664.323C628.384 664.205 628.303 664.049 628.287 663.857C628.273 663.663 628.328 663.489 628.451 663.337C628.575 663.185 628.732 663.097 628.923 663.073C629.117 663.047 629.286 663.093 629.432 663.211C629.577 663.329 629.657 663.485 629.671 663.68C629.687 663.872 629.634 664.044 629.51 664.196ZM634.488 663.932L637.546 666.413L636.912 667.193L631.829 663.069L632.441 662.315L633.236 662.959L633.289 662.893C633.128 662.565 633.067 662.215 633.107 661.846C633.145 661.474 633.32 661.096 633.632 660.713C633.911 660.368 634.226 660.125 634.576 659.981C634.925 659.836 635.3 659.807 635.7 659.894C636.099 659.98 636.515 660.198 636.947 660.549L640.177 663.17L639.543 663.951L636.366 661.373C635.967 661.049 635.572 660.9 635.181 660.927C634.788 660.952 634.444 661.145 634.151 661.507C633.948 661.756 633.822 662.023 633.77 662.307C633.721 662.589 633.754 662.87 633.87 663.151C633.987 663.432 634.192 663.692 634.488 663.932ZM645.011 661.323C644.705 661.7 644.394 661.985 644.076 662.178C643.761 662.372 643.452 662.496 643.149 662.55C642.849 662.604 642.568 662.612 642.306 662.574L642.374 661.598C642.524 661.602 642.702 661.599 642.909 661.588C643.118 661.578 643.343 661.515 643.583 661.399C643.828 661.283 644.074 661.071 644.323 660.765C644.656 660.354 644.831 659.935 644.849 659.507C644.868 659.079 644.665 658.693 644.241 658.35L643.209 657.512L643.155 657.578C643.201 657.711 643.25 657.885 643.3 658.102C643.351 658.315 643.349 658.563 643.296 658.845C643.242 659.123 643.081 659.428 642.813 659.759C642.48 660.169 642.084 660.459 641.625 660.628C641.167 660.794 640.676 660.822 640.152 660.711C639.629 660.598 639.103 660.327 638.574 659.897C638.053 659.475 637.674 659.015 637.436 658.519C637.197 658.021 637.103 657.523 637.156 657.024C637.207 656.524 637.406 656.06 637.754 655.632C638.022 655.301 638.29 655.084 638.558 654.979C638.826 654.87 639.071 654.82 639.294 654.83C639.517 654.835 639.695 654.844 639.83 654.859L639.895 654.779L639.087 654.124L639.699 653.37L644.928 657.612C645.365 657.966 645.639 658.353 645.752 658.774C645.868 659.194 645.855 659.623 645.713 660.06C645.575 660.496 645.341 660.917 645.011 661.323ZM642.197 659.084C642.451 658.77 642.594 658.447 642.626 658.115C642.658 657.782 642.585 657.451 642.407 657.12C642.23 656.789 641.953 656.471 641.578 656.167C641.212 655.87 640.844 655.663 640.474 655.546C640.105 655.429 639.753 655.414 639.418 655.501C639.084 655.589 638.788 655.791 638.53 656.109C638.262 656.44 638.122 656.783 638.111 657.14C638.101 657.495 638.193 657.841 638.386 658.181C638.58 658.518 638.85 658.826 639.194 659.106C639.547 659.392 639.904 659.59 640.265 659.7C640.625 659.806 640.971 659.812 641.303 659.719C641.634 659.622 641.932 659.41 642.197 659.084Z" fill="black"/>
</g>
<circle id="Ellipse 29" cx="1191.83" cy="1078.23" r="44.9361" transform="rotate(-50.9458 1191.83 1078.23)" fill="url(#paint8_linear_565_495)"/>
<g id="branding-serv">
<g id="brd-el">
<circle id="Ellipse 27" cx="385.22" cy="909.862" r="44.9361" transform="rotate(-50.9458 385.22 909.862)" fill="url(#paint9_linear_565_495)"/>
<path id="Vector 21" d="M376.634 882.643C367.871 881.319 371.215 895.028 390.592 893.968C393.384 896.233 399.528 898.788 401.772 890.887C404.577 881.011 404.86 880.662 398.25 872.405C391.64 864.149 382.468 871.174 389.927 878.383C397.387 885.593 385.397 883.967 376.634 882.643Z" fill="url(#paint10_linear_565_495)" stroke="#DBA046" stroke-width="0.5"/>
<path id="Vector 19" d="M359.825 908.354C344.109 907.755 370.011 917.197 365.665 936.817C368.213 933.677 372.427 925.06 368.898 915.716C364.487 904.035 377.273 922.51 388.209 914.024C399.145 905.537 383.884 900.098 359.825 908.354Z" fill="url(#paint11_linear_565_495)" stroke="#DBA046" stroke-width="0.5"/>
<path id="Vector 20" d="M405.768 932.322C403.418 906.69 413.116 904.721 413.735 916.797C414.23 926.457 408.63 931.172 405.768 932.322Z" fill="url(#paint12_linear_565_495)" stroke="#DBA046" stroke-width="0.5"/>
</g>
<path id="branding" d="M412.809 969.079L406.032 963.58L406.665 962.799L409.167 964.829L409.221 964.763C409.179 964.634 409.131 964.463 409.076 964.25C409.021 964.034 409.018 963.786 409.065 963.506C409.113 963.223 409.271 962.915 409.539 962.584C409.886 962.157 410.299 961.866 410.778 961.713C411.257 961.56 411.767 961.552 412.308 961.687C412.85 961.823 413.387 962.107 413.921 962.54C414.459 962.977 414.852 963.447 415.098 963.95C415.342 964.452 415.441 964.953 415.394 965.453C415.345 965.951 415.148 966.411 414.805 966.835C414.54 967.161 414.274 967.379 414.006 967.488C413.737 967.594 413.489 967.644 413.265 967.638C413.037 967.629 412.854 967.616 412.715 967.598L412.64 967.69L413.421 968.324L412.809 969.079ZM410.89 966.249C411.274 966.56 411.658 966.779 412.043 966.904C412.425 967.028 412.787 967.049 413.128 966.967C413.467 966.883 413.763 966.685 414.017 966.372C414.282 966.045 414.417 965.703 414.422 965.345C414.427 964.983 414.327 964.628 414.124 964.279C413.919 963.927 413.636 963.604 413.274 963.31C412.917 963.02 412.55 962.814 412.174 962.692C411.797 962.565 411.435 962.545 411.089 962.629C410.742 962.71 410.434 962.915 410.165 963.246C409.908 963.564 409.772 963.896 409.757 964.243C409.741 964.588 409.831 964.932 410.028 965.275C410.223 965.616 410.511 965.941 410.89 966.249ZM417.419 963.397L412.336 959.273L412.948 958.518L413.716 959.141L413.759 959.088C413.582 958.792 413.514 958.458 413.555 958.089C413.595 957.719 413.738 957.382 413.985 957.077C414.032 957.02 414.091 956.949 414.163 956.865C414.235 956.781 414.291 956.718 414.332 956.678L415.126 957.322C415.098 957.343 415.039 957.396 414.948 957.48C414.858 957.56 414.77 957.652 414.686 957.756C414.486 958.003 414.359 958.265 414.305 958.544C414.251 958.818 414.268 959.085 414.358 959.344C414.447 959.599 414.606 959.82 414.836 960.006L418.052 962.616L417.419 963.397ZM421.564 958.531C421.303 958.853 421.005 959.096 420.671 959.26C420.334 959.422 419.988 959.486 419.631 959.453C419.272 959.418 418.927 959.266 418.596 958.997C418.304 958.761 418.115 958.512 418.027 958.251C417.937 957.987 417.918 957.718 417.97 957.442C418.022 957.166 418.117 956.891 418.254 956.618C418.391 956.341 418.539 956.073 418.7 955.811C418.911 955.47 419.084 955.196 419.22 954.988C419.356 954.776 419.434 954.605 419.455 954.476C419.477 954.344 419.426 954.227 419.3 954.125L419.274 954.104C418.947 953.839 418.621 953.722 418.295 953.754C417.971 953.784 417.663 953.978 417.371 954.338C417.069 954.711 416.913 955.069 416.905 955.414C416.896 955.758 416.949 956.048 417.065 956.285L416.199 956.811C415.997 956.428 415.9 956.057 415.907 955.696C415.913 955.332 415.989 954.991 416.134 954.673C416.278 954.351 416.454 954.062 416.661 953.806C416.794 953.643 416.966 953.471 417.177 953.292C417.389 953.108 417.634 952.966 417.914 952.864C418.196 952.76 418.511 952.739 418.859 952.802C419.207 952.864 419.583 953.06 419.987 953.387L423.335 956.104L422.702 956.885L422.014 956.327L421.981 956.366C422.049 956.509 422.095 956.693 422.121 956.918C422.146 957.144 422.12 957.395 422.042 957.672C421.963 957.949 421.804 958.235 421.564 958.531ZM420.96 957.842C421.21 957.533 421.361 957.224 421.411 956.914C421.463 956.601 421.437 956.313 421.333 956.049C421.231 955.783 421.074 955.564 420.862 955.392L420.147 954.812C420.16 954.878 420.137 954.98 420.079 955.119C420.021 955.255 419.944 955.405 419.85 955.57C419.756 955.732 419.662 955.888 419.569 956.039C419.475 956.186 419.4 956.306 419.343 956.399C419.205 956.623 419.094 956.848 419.01 957.073C418.926 957.294 418.899 957.505 418.928 957.708C418.957 957.907 419.07 958.087 419.269 958.248C419.54 958.469 419.827 958.535 420.129 958.447C420.43 958.355 420.707 958.153 420.96 957.842ZM422.068 951.417L425.126 953.898L424.492 954.679L419.409 950.555L420.021 949.8L420.815 950.445L420.869 950.378C420.708 950.05 420.647 949.701 420.687 949.331C420.725 948.959 420.9 948.582 421.212 948.198C421.491 947.854 421.806 947.61 422.156 947.466C422.505 947.321 422.879 947.292 423.28 947.38C423.679 947.465 424.095 947.684 424.527 948.034L427.757 950.655L427.123 951.436L423.946 948.858C423.547 948.534 423.152 948.386 422.761 948.412C422.368 948.437 422.024 948.63 421.731 948.992C421.528 949.241 421.402 949.508 421.35 949.792C421.301 950.074 421.334 950.355 421.45 950.636C421.566 950.917 421.772 951.177 422.068 951.417ZM430.578 947.394C430.234 947.818 429.824 948.105 429.347 948.256C428.867 948.405 428.357 948.411 427.816 948.276C427.272 948.139 426.731 947.851 426.193 947.415C425.659 946.982 425.27 946.514 425.026 946.012C424.782 945.511 424.685 945.01 424.736 944.51C424.787 944.01 424.986 943.545 425.334 943.118C425.602 942.787 425.869 942.57 426.135 942.467C426.401 942.361 426.644 942.313 426.866 942.325C427.087 942.332 427.265 942.343 427.399 942.357L427.453 942.291L424.951 940.261L425.585 939.48L432.362 944.979L431.75 945.733L430.969 945.1L430.894 945.192C430.94 945.325 430.991 945.501 431.046 945.722C431.099 945.94 431.101 946.193 431.052 946.479C431.001 946.763 430.843 947.068 430.578 947.394ZM429.962 946.719C430.216 946.406 430.35 946.075 430.362 945.726C430.372 945.376 430.277 945.026 430.077 944.678C429.875 944.327 429.582 943.996 429.198 943.685C428.818 943.377 428.442 943.162 428.067 943.042C427.691 942.919 427.336 942.902 427.002 942.989C426.665 943.075 426.368 943.276 426.11 943.594C425.842 943.925 425.703 944.27 425.694 944.628C425.684 944.983 425.779 945.332 425.979 945.677C426.178 946.018 426.456 946.333 426.814 946.623C427.175 946.917 427.549 947.128 427.934 947.258C428.319 947.383 428.687 947.408 429.038 947.331C429.389 947.25 429.697 947.046 429.962 946.719ZM433.611 943.44L428.528 939.316L429.161 938.535L434.244 942.659L433.611 943.44ZM428.003 938.232C427.879 938.384 427.721 938.473 427.528 938.499C427.336 938.523 427.168 938.476 427.022 938.358C426.877 938.24 426.796 938.085 426.78 937.892C426.766 937.698 426.82 937.525 426.944 937.372C427.067 937.22 427.225 937.132 427.416 937.108C427.609 937.082 427.779 937.128 427.924 937.246C428.07 937.364 428.15 937.52 428.164 937.715C428.18 937.907 428.126 938.079 428.003 938.232ZM432.981 937.967L436.038 940.448L435.405 941.229L430.322 937.105L430.934 936.35L431.728 936.995L431.782 936.928C431.62 936.6 431.56 936.251 431.6 935.881C431.638 935.509 431.813 935.132 432.124 934.748C432.404 934.404 432.719 934.16 433.069 934.016C433.418 933.871 433.792 933.842 434.193 933.929C434.592 934.015 435.007 934.233 435.44 934.584L438.67 937.205L438.036 937.986L434.859 935.408C434.46 935.084 434.065 934.936 433.674 934.962C433.28 934.987 432.937 935.18 432.643 935.542C432.441 935.791 432.314 936.058 432.263 936.342C432.214 936.624 432.247 936.905 432.363 937.186C432.479 937.467 432.685 937.727 432.981 937.967ZM443.504 935.358C443.198 935.736 442.886 936.021 442.569 936.213C442.254 936.408 441.945 936.532 441.641 936.585C441.342 936.639 441.061 936.647 440.799 936.61L440.867 935.633C441.017 935.638 441.195 935.634 441.402 935.623C441.611 935.613 441.836 935.55 442.076 935.434C442.32 935.318 442.567 935.107 442.816 934.8C443.149 934.39 443.324 933.97 443.342 933.542C443.36 933.114 443.157 932.728 442.734 932.385L441.701 931.547L441.648 931.613C441.694 931.746 441.742 931.921 441.793 932.137C441.844 932.35 441.842 932.598 441.789 932.88C441.735 933.158 441.574 933.463 441.305 933.794C440.972 934.204 440.576 934.494 440.117 934.663C439.66 934.83 439.169 934.858 438.645 934.747C438.122 934.633 437.596 934.362 437.066 933.932C436.546 933.51 436.166 933.051 435.929 932.554C435.689 932.056 435.596 931.558 435.649 931.06C435.7 930.559 435.899 930.095 436.246 929.667C436.515 929.336 436.783 929.119 437.051 929.014C437.318 928.905 437.563 928.856 437.787 928.865C438.009 928.87 438.188 928.879 438.323 928.894L438.387 928.814L437.58 928.159L438.192 927.405L443.42 931.647C443.857 932.001 444.132 932.389 444.244 932.809C444.361 933.229 444.348 933.658 444.206 934.095C444.067 934.531 443.833 934.952 443.504 935.358ZM440.69 933.119C440.944 932.806 441.087 932.483 441.119 932.15C441.151 931.818 441.078 931.486 440.9 931.155C440.722 930.824 440.446 930.506 440.071 930.202C439.705 929.905 439.337 929.698 438.967 929.581C438.597 929.464 438.245 929.449 437.911 929.536C437.577 929.624 437.281 929.826 437.023 930.144C436.755 930.475 436.615 930.819 436.603 931.175C436.594 931.53 436.685 931.877 436.878 932.216C437.073 932.553 437.342 932.862 437.687 933.141C438.04 933.427 438.396 933.625 438.757 933.735C439.118 933.841 439.464 933.847 439.795 933.754C440.127 933.657 440.425 933.445 440.69 933.119Z" fill="black"/>
</g>
<g id="signage-serv">
<path id="signage" d="M809.215 1245.56L808.844 1246.42C808.692 1246.37 808.525 1246.34 808.345 1246.34C808.165 1246.33 807.979 1246.37 807.788 1246.46C807.597 1246.55 807.409 1246.7 807.225 1246.93C806.973 1247.24 806.834 1247.56 806.809 1247.88C806.784 1248.2 806.88 1248.45 807.099 1248.63C807.293 1248.78 807.504 1248.84 807.731 1248.79C807.958 1248.74 808.23 1248.59 808.549 1248.35L809.346 1247.75C809.825 1247.39 810.269 1247.18 810.677 1247.15C811.083 1247.1 811.463 1247.23 811.818 1247.52C812.11 1247.75 812.302 1248.05 812.395 1248.4C812.491 1248.75 812.483 1249.13 812.374 1249.54C812.265 1249.94 812.05 1250.34 811.73 1250.74C811.309 1251.26 810.848 1251.59 810.348 1251.75C809.847 1251.91 809.344 1251.86 808.838 1251.6L809.254 1250.7C809.585 1250.86 809.898 1250.89 810.195 1250.8C810.492 1250.72 810.771 1250.51 811.031 1250.19C811.326 1249.83 811.483 1249.48 811.502 1249.14C811.521 1248.79 811.421 1248.53 811.203 1248.36C811.027 1248.21 810.829 1248.16 810.609 1248.18C810.388 1248.21 810.143 1248.32 809.876 1248.53L808.99 1249.22C808.502 1249.59 808.054 1249.8 807.645 1249.83C807.236 1249.85 806.856 1249.72 806.505 1249.44C806.218 1249.21 806.03 1248.92 805.94 1248.58C805.852 1248.24 805.858 1247.88 805.96 1247.49C806.063 1247.11 806.26 1246.74 806.55 1246.38C806.958 1245.88 807.389 1245.57 807.842 1245.47C808.297 1245.36 808.755 1245.39 809.215 1245.56ZM814.189 1247.49L809.106 1243.37L809.739 1242.59L814.822 1246.71L814.189 1247.49ZM808.581 1242.28C808.457 1242.43 808.299 1242.52 808.106 1242.55C807.914 1242.57 807.746 1242.53 807.6 1242.41C807.455 1242.29 807.374 1242.14 807.358 1241.94C807.344 1241.75 807.398 1241.58 807.522 1241.42C807.645 1241.27 807.803 1241.18 807.994 1241.16C808.187 1241.13 808.357 1241.18 808.502 1241.3C808.648 1241.41 808.728 1241.57 808.742 1241.77C808.758 1241.96 808.704 1242.13 808.581 1242.28ZM819.659 1244.86C819.353 1245.24 819.042 1245.52 818.724 1245.71C818.409 1245.91 818.1 1246.03 817.797 1246.09C817.497 1246.14 817.216 1246.15 816.954 1246.11L817.022 1245.13C817.172 1245.14 817.35 1245.14 817.557 1245.12C817.766 1245.11 817.991 1245.05 818.231 1244.94C818.476 1244.82 818.722 1244.61 818.971 1244.3C819.304 1243.89 819.479 1243.47 819.497 1243.04C819.515 1242.62 819.313 1242.23 818.889 1241.89L817.857 1241.05L817.803 1241.12C817.849 1241.25 817.898 1241.42 817.948 1241.64C817.999 1241.85 817.997 1242.1 817.944 1242.38C817.89 1242.66 817.729 1242.96 817.461 1243.3C817.128 1243.71 816.732 1244 816.273 1244.16C815.815 1244.33 815.324 1244.36 814.8 1244.25C814.277 1244.14 813.751 1243.86 813.221 1243.43C812.701 1243.01 812.322 1242.55 812.084 1242.06C811.845 1241.56 811.751 1241.06 811.804 1240.56C811.855 1240.06 812.054 1239.6 812.402 1239.17C812.67 1238.84 812.938 1238.62 813.206 1238.52C813.473 1238.41 813.719 1238.36 813.942 1238.37C814.165 1238.37 814.343 1238.38 814.478 1238.4L814.543 1238.32L813.735 1237.66L814.347 1236.91L819.576 1241.15C820.013 1241.5 820.287 1241.89 820.4 1242.31C820.516 1242.73 820.503 1243.16 820.361 1243.6C820.223 1244.03 819.989 1244.45 819.659 1244.86ZM816.845 1242.62C817.099 1242.31 817.242 1241.98 817.274 1241.65C817.306 1241.32 817.233 1240.99 817.055 1240.66C816.878 1240.33 816.601 1240.01 816.226 1239.7C815.86 1239.41 815.492 1239.2 815.122 1239.08C814.753 1238.97 814.401 1238.95 814.066 1239.04C813.732 1239.13 813.436 1239.33 813.178 1239.65C812.91 1239.98 812.77 1240.32 812.759 1240.68C812.749 1241.03 812.841 1241.38 813.034 1241.72C813.228 1242.05 813.498 1242.36 813.842 1242.64C814.195 1242.93 814.552 1243.13 814.913 1243.24C815.273 1243.34 815.619 1243.35 815.951 1243.26C816.282 1243.16 816.58 1242.95 816.845 1242.62ZM818.166 1236.34L821.224 1238.82L820.59 1239.6L815.507 1235.48L816.119 1234.72L816.913 1235.37L816.967 1235.3C816.806 1234.97 816.745 1234.62 816.785 1234.25C816.823 1233.88 816.998 1233.5 817.31 1233.12C817.589 1232.78 817.904 1232.53 818.254 1232.39C818.603 1232.24 818.977 1232.21 819.378 1232.3C819.777 1232.39 820.193 1232.61 820.625 1232.96L823.855 1235.58L823.221 1236.36L820.044 1233.78C819.645 1233.46 819.25 1233.31 818.859 1233.33C818.466 1233.36 818.122 1233.55 817.829 1233.91C817.626 1234.16 817.5 1234.43 817.448 1234.71C817.399 1235 817.432 1235.28 817.548 1235.56C817.664 1235.84 817.87 1236.1 818.166 1236.34ZM826.345 1232.75C826.084 1233.07 825.786 1233.32 825.452 1233.48C825.115 1233.64 824.769 1233.71 824.412 1233.67C824.053 1233.64 823.707 1233.49 823.377 1233.22C823.085 1232.98 822.896 1232.73 822.808 1232.47C822.718 1232.21 822.699 1231.94 822.751 1231.66C822.803 1231.39 822.898 1231.11 823.035 1230.84C823.172 1230.56 823.32 1230.29 823.481 1230.03C823.692 1229.69 823.865 1229.42 824.001 1229.21C824.137 1229 824.215 1228.83 824.236 1228.7C824.258 1228.56 824.207 1228.45 824.081 1228.35L824.054 1228.32C823.728 1228.06 823.402 1227.94 823.076 1227.97C822.752 1228 822.444 1228.2 822.152 1228.56C821.85 1228.93 821.694 1229.29 821.686 1229.63C821.677 1229.98 821.73 1230.27 821.846 1230.5L820.98 1231.03C820.778 1230.65 820.681 1230.28 820.688 1229.92C820.694 1229.55 820.77 1229.21 820.915 1228.89C821.059 1228.57 821.235 1228.28 821.442 1228.03C821.575 1227.86 821.747 1227.69 821.958 1227.51C822.169 1227.33 822.415 1227.19 822.695 1227.08C822.977 1226.98 823.292 1226.96 823.64 1227.02C823.988 1227.08 824.364 1227.28 824.768 1227.61L828.116 1230.32L827.483 1231.11L826.794 1230.55L826.762 1230.59C826.83 1230.73 826.876 1230.91 826.902 1231.14C826.927 1231.36 826.901 1231.62 826.822 1231.89C826.744 1232.17 826.585 1232.46 826.345 1232.75ZM825.74 1232.06C825.991 1231.75 826.142 1231.44 826.192 1231.13C826.244 1230.82 826.218 1230.53 826.114 1230.27C826.012 1230 825.855 1229.78 825.643 1229.61L824.928 1229.03C824.941 1229.1 824.918 1229.2 824.86 1229.34C824.801 1229.47 824.725 1229.63 824.631 1229.79C824.537 1229.95 824.443 1230.11 824.35 1230.26C824.256 1230.41 824.181 1230.53 824.124 1230.62C823.986 1230.84 823.875 1231.07 823.791 1231.29C823.707 1231.51 823.68 1231.73 823.709 1231.93C823.738 1232.13 823.851 1232.31 824.05 1232.47C824.321 1232.69 824.608 1232.75 824.91 1232.67C825.211 1232.57 825.488 1232.37 825.74 1232.06ZM832.95 1228.48C832.643 1228.86 832.332 1229.14 832.015 1229.33C831.7 1229.53 831.39 1229.65 831.087 1229.71C830.788 1229.76 830.507 1229.77 830.244 1229.73L830.312 1228.75C830.462 1228.76 830.64 1228.76 830.847 1228.74C831.056 1228.73 831.281 1228.67 831.521 1228.56C831.766 1228.44 832.012 1228.23 832.261 1227.92C832.594 1227.51 832.77 1227.09 832.788 1226.66C832.806 1226.24 832.603 1225.85 832.179 1225.51L831.147 1224.67L831.093 1224.73C831.139 1224.87 831.188 1225.04 831.239 1225.26C831.289 1225.47 831.288 1225.72 831.234 1226C831.18 1226.28 831.019 1226.58 830.751 1226.92C830.418 1227.33 830.022 1227.62 829.563 1227.78C829.106 1227.95 828.615 1227.98 828.09 1227.87C827.567 1227.75 827.041 1227.48 826.512 1227.05C825.991 1226.63 825.612 1226.17 825.374 1225.68C825.135 1225.18 825.041 1224.68 825.095 1224.18C825.146 1223.68 825.345 1223.22 825.692 1222.79C825.96 1222.46 826.228 1222.24 826.496 1222.14C826.764 1222.03 827.009 1221.98 827.232 1221.99C827.455 1221.99 827.634 1222 827.768 1222.02L827.833 1221.94L827.025 1221.28L827.637 1220.53L832.866 1224.77C833.303 1225.12 833.577 1225.51 833.69 1225.93C833.806 1226.35 833.793 1226.78 833.651 1227.22C833.513 1227.65 833.279 1228.07 832.95 1228.48ZM830.135 1226.24C830.389 1225.93 830.532 1225.6 830.564 1225.27C830.596 1224.94 830.523 1224.61 830.346 1224.28C830.168 1223.95 829.891 1223.63 829.516 1223.32C829.15 1223.03 828.782 1222.82 828.412 1222.7C828.043 1222.59 827.691 1222.57 827.357 1222.66C827.022 1222.75 826.726 1222.95 826.469 1223.27C826.2 1223.6 826.06 1223.94 826.049 1224.3C826.039 1224.65 826.131 1225 826.324 1225.34C826.519 1225.67 826.788 1225.98 827.132 1226.26C827.485 1226.55 827.842 1226.75 828.203 1226.86C828.563 1226.96 828.909 1226.97 829.241 1226.88C829.572 1226.78 829.87 1226.57 830.135 1226.24ZM835.715 1221.18C835.318 1221.67 834.867 1222 834.363 1222.18C833.858 1222.36 833.332 1222.38 832.786 1222.26C832.239 1222.13 831.706 1221.85 831.185 1221.43C830.665 1221.01 830.283 1220.54 830.039 1220.03C829.796 1219.51 829.701 1218.99 829.756 1218.47C829.81 1217.94 830.023 1217.45 830.396 1216.99C830.611 1216.73 830.867 1216.5 831.164 1216.31C831.462 1216.13 831.796 1216.01 832.167 1215.96C832.535 1215.91 832.932 1215.95 833.358 1216.09C833.785 1216.22 834.235 1216.48 834.709 1216.87L835.04 1217.14L831.861 1221.06L831.186 1220.51L833.721 1217.38C833.434 1217.15 833.131 1217 832.813 1216.93C832.497 1216.86 832.189 1216.88 831.889 1216.98C831.59 1217.09 831.326 1217.28 831.097 1217.56C830.845 1217.87 830.704 1218.2 830.674 1218.56C830.644 1218.9 830.702 1219.24 830.848 1219.56C830.994 1219.88 831.208 1220.15 831.488 1220.38L831.938 1220.74C832.322 1221.06 832.701 1221.25 833.075 1221.34C833.449 1221.42 833.802 1221.4 834.135 1221.27C834.465 1221.14 834.758 1220.92 835.014 1220.61C835.18 1220.4 835.302 1220.19 835.379 1219.98C835.455 1219.76 835.484 1219.55 835.466 1219.33C835.445 1219.11 835.373 1218.9 835.25 1218.69L836.074 1218.11C836.266 1218.4 836.383 1218.71 836.425 1219.06C836.464 1219.4 836.426 1219.75 836.311 1220.12C836.193 1220.48 835.994 1220.83 835.715 1221.18Z" fill="black"/>
<g id="sgn-el">
<circle id="Ellipse 32" cx="731.458" cy="1179.21" r="89.8721" transform="rotate(-50.9458 731.458 1179.21)" fill="url(#paint13_linear_565_495)"/>
<path id="Vector 25" d="M756.648 1230.9L744.205 1203.44L776.183 1206.82L756.648 1230.9Z" fill="#7BE3DD" stroke="#B8EAFF" stroke-width="0.5"/>
<path id="Vector 26" d="M762.167 1142.79L770.771 1167.13L781.253 1163.48L770.054 1138.77L776.961 1134.54L752.258 1124.33L752.448 1147.63L762.167 1142.79Z" fill="url(#paint14_linear_565_495)" stroke="#B8FFFB" stroke-width="0.5"/>
<path id="Vector 24" d="M708.915 1171.33L680.602 1206.23L683.743 1208.78L712.055 1173.88L716.868 1167.95L721.405 1171.63L716.591 1177.56L721.826 1181.81L726.639 1175.88L731.524 1179.84L726.711 1185.77L731.945 1190.02L749.499 1168.39L719.14 1143.75L701.587 1165.39L708.915 1171.33Z" fill="#3AFF4E" stroke="#B8FBFF" stroke-width="0.5"/>
</g>
</g>
<g id="billboard-serv">
<g id="bill-el">
<circle id="Ellipse 31" cx="1201.41" cy="746.908" r="76.3913" transform="rotate(-50.9458 1201.41 746.908)" fill="url(#paint15_angular_565_495)"/>
<g id="Vector 23">
<path d="M1145.84 749.78L1193.13 691.505L1220.34 713.588L1201.66 736.619L1244.93 771.726L1235.59 783.241L1192.32 748.134L1173.06 771.863C1171.49 771.31 1169.7 770.135 1168.62 768.262L1145.84 749.78Z" fill="#6B69E5"/>
<path d="M1193.13 691.505L1145.84 749.78L1173.06 771.863M1193.13 691.505L1220.34 713.588L1201.66 736.619M1193.13 691.505C1193.49 692.958 1194.52 696.918 1195.73 701.137C1196.93 705.356 1200.05 719.11 1201.45 725.459C1196.56 729.589 1184.14 740.807 1173.62 752.638C1163.09 764.468 1168.86 770.384 1173.06 771.863M1173.06 771.863L1192.32 748.134M1192.32 748.134L1235.59 783.241L1244.93 771.726L1201.66 736.619M1192.32 748.134L1201.66 736.619" stroke="#FFB8B8" stroke-width="0.5"/>
</g>
</g>
<path id="billboard" d="M1271.22 831.116L1264.44 825.617L1265.07 824.836L1267.58 826.866L1267.63 826.8C1267.59 826.671 1267.54 826.5 1267.49 826.288C1267.43 826.071 1267.43 825.823 1267.48 825.543C1267.52 825.26 1267.68 824.953 1267.95 824.622C1268.3 824.194 1268.71 823.903 1269.19 823.75C1269.67 823.597 1270.18 823.589 1270.72 823.724C1271.26 823.86 1271.8 824.144 1272.33 824.577C1272.87 825.014 1273.26 825.484 1273.51 825.988C1273.75 826.489 1273.85 826.99 1273.8 827.49C1273.75 827.988 1273.56 828.448 1273.21 828.872C1272.95 829.198 1272.68 829.416 1272.42 829.525C1272.15 829.632 1271.9 829.682 1271.67 829.675C1271.45 829.666 1271.26 829.653 1271.12 829.635L1271.05 829.728L1271.83 830.361L1271.22 831.116ZM1269.3 828.286C1269.68 828.597 1270.07 828.816 1270.45 828.941C1270.84 829.065 1271.2 829.086 1271.54 829.004C1271.88 828.92 1272.17 828.722 1272.43 828.409C1272.69 828.082 1272.83 827.74 1272.83 827.382C1272.84 827.02 1272.74 826.665 1272.53 826.316C1272.33 825.964 1272.05 825.641 1271.68 825.347C1271.33 825.057 1270.96 824.851 1270.58 824.729C1270.21 824.603 1269.85 824.582 1269.5 824.666C1269.15 824.747 1268.84 824.953 1268.58 825.283C1268.32 825.601 1268.18 825.933 1268.17 826.28C1268.15 826.625 1268.24 826.969 1268.44 827.312C1268.63 827.654 1268.92 827.978 1269.3 828.286ZM1275.83 825.434L1270.75 821.31L1271.38 820.529L1276.46 824.653L1275.83 825.434ZM1270.22 820.225C1270.1 820.378 1269.94 820.467 1269.75 820.493C1269.55 820.517 1269.39 820.47 1269.24 820.352C1269.09 820.234 1269.01 820.078 1269 819.886C1268.98 819.692 1269.04 819.519 1269.16 819.366C1269.29 819.214 1269.44 819.126 1269.63 819.102C1269.83 819.076 1270 819.122 1270.14 819.24C1270.29 819.358 1270.37 819.514 1270.38 819.709C1270.4 819.901 1270.34 820.073 1270.22 820.225ZM1271.48 816.943L1278.26 822.442L1277.62 823.223L1270.85 817.724L1271.48 816.943ZM1273.27 814.732L1280.05 820.23L1279.42 821.011L1272.64 815.513L1273.27 814.732ZM1281.3 818.694L1274.52 813.195L1275.15 812.414L1277.65 814.444L1277.71 814.378C1277.67 814.249 1277.62 814.078 1277.56 813.866C1277.51 813.649 1277.51 813.401 1277.55 813.122C1277.6 812.838 1277.76 812.531 1278.03 812.2C1278.37 811.772 1278.79 811.481 1279.27 811.329C1279.75 811.176 1280.26 811.167 1280.8 811.302C1281.34 811.438 1281.88 811.722 1282.41 812.155C1282.95 812.592 1283.34 813.062 1283.59 813.566C1283.83 814.068 1283.93 814.568 1283.88 815.068C1283.83 815.566 1283.64 816.027 1283.29 816.45C1283.03 816.777 1282.76 816.994 1282.49 817.103C1282.22 817.21 1281.98 817.26 1281.75 817.253C1281.53 817.244 1281.34 817.231 1281.2 817.213L1281.13 817.306L1281.91 817.939L1281.3 818.694ZM1279.38 815.864C1279.76 816.176 1280.15 816.394 1280.53 816.52C1280.91 816.643 1281.28 816.664 1281.62 816.582C1281.95 816.499 1282.25 816.3 1282.51 815.987C1282.77 815.66 1282.91 815.318 1282.91 814.96C1282.92 814.598 1282.82 814.243 1282.61 813.895C1282.41 813.542 1282.12 813.219 1281.76 812.926C1281.41 812.636 1281.04 812.43 1280.66 812.307C1280.29 812.181 1279.92 812.16 1279.58 812.244C1279.23 812.325 1278.92 812.531 1278.65 812.862C1278.4 813.179 1278.26 813.512 1278.25 813.858C1278.23 814.204 1278.32 814.548 1278.52 814.891C1278.71 815.232 1279 815.556 1279.38 815.864ZM1287.69 811.033C1287.32 811.492 1286.88 811.806 1286.38 811.975C1285.88 812.142 1285.36 812.163 1284.81 812.039C1284.26 811.912 1283.72 811.636 1283.2 811.21C1282.67 810.78 1282.28 810.309 1282.05 809.797C1281.81 809.282 1281.72 808.764 1281.78 808.243C1281.84 807.72 1282.06 807.228 1282.43 806.769C1282.81 806.311 1283.24 805.998 1283.74 805.831C1284.24 805.662 1284.76 805.641 1285.31 805.77C1285.87 805.896 1286.41 806.174 1286.94 806.603C1287.46 807.029 1287.84 807.499 1288.08 808.012C1288.31 808.522 1288.4 809.039 1288.34 809.563C1288.28 810.084 1288.06 810.574 1287.69 811.033ZM1286.99 810.464C1287.27 810.115 1287.41 809.756 1287.42 809.386C1287.42 809.016 1287.32 808.659 1287.12 808.314C1286.91 807.97 1286.64 807.66 1286.3 807.384C1285.96 807.109 1285.6 806.906 1285.22 806.776C1284.84 806.646 1284.47 806.62 1284.1 806.698C1283.74 806.777 1283.42 806.99 1283.13 807.339C1282.85 807.687 1282.71 808.047 1282.71 808.419C1282.71 808.791 1282.81 809.15 1283.01 809.496C1283.22 809.842 1283.49 810.153 1283.83 810.429C1284.17 810.705 1284.53 810.906 1284.91 811.035C1285.29 811.163 1285.66 811.187 1286.02 811.107C1286.38 811.027 1286.7 810.812 1286.99 810.464ZM1291.75 806.053C1291.49 806.375 1291.19 806.618 1290.86 806.782C1290.52 806.944 1290.17 807.009 1289.82 806.975C1289.46 806.94 1289.11 806.788 1288.78 806.52C1288.49 806.283 1288.3 806.034 1288.21 805.773C1288.12 805.51 1288.1 805.24 1288.16 804.964C1288.21 804.688 1288.3 804.413 1288.44 804.141C1288.58 803.864 1288.73 803.595 1288.89 803.334C1289.1 802.993 1289.27 802.718 1289.41 802.51C1289.54 802.298 1289.62 802.127 1289.64 801.998C1289.66 801.866 1289.61 801.749 1289.49 801.647L1289.46 801.626C1289.13 801.361 1288.81 801.244 1288.48 801.276C1288.16 801.306 1287.85 801.501 1287.56 801.86C1287.25 802.233 1287.1 802.592 1287.09 802.936C1287.08 803.28 1287.14 803.571 1287.25 803.807L1286.39 804.333C1286.18 803.95 1286.09 803.579 1286.09 803.219C1286.1 802.854 1286.18 802.513 1286.32 802.195C1286.46 801.873 1286.64 801.584 1286.85 801.328C1286.98 801.165 1287.15 800.994 1287.36 800.814C1287.57 800.631 1287.82 800.488 1288.1 800.386C1288.38 800.282 1288.7 800.261 1289.05 800.324C1289.39 800.387 1289.77 800.582 1290.17 800.909L1293.52 803.626L1292.89 804.407L1292.2 803.849L1292.17 803.889C1292.23 804.031 1292.28 804.215 1292.31 804.441C1292.33 804.666 1292.31 804.917 1292.23 805.194C1292.15 805.471 1291.99 805.757 1291.75 806.053ZM1291.15 805.364C1291.4 805.056 1291.55 804.746 1291.6 804.436C1291.65 804.123 1291.62 803.835 1291.52 803.571C1291.42 803.305 1291.26 803.086 1291.05 802.915L1290.33 802.335C1290.35 802.4 1290.32 802.502 1290.27 802.642C1290.21 802.777 1290.13 802.927 1290.04 803.093C1289.94 803.254 1289.85 803.41 1289.76 803.561C1289.66 803.708 1289.59 803.828 1289.53 803.921C1289.39 804.146 1289.28 804.37 1289.2 804.595C1289.11 804.816 1289.09 805.028 1289.11 805.231C1289.14 805.43 1289.26 805.61 1289.46 805.771C1289.73 805.991 1290.01 806.057 1290.32 805.969C1290.62 805.877 1290.89 805.676 1291.15 805.364ZM1294.68 802.201L1289.6 798.077L1290.21 797.323L1290.98 797.945L1291.02 797.893C1290.84 797.596 1290.77 797.263 1290.81 796.893C1290.85 796.523 1291 796.186 1291.25 795.882C1291.29 795.824 1291.35 795.753 1291.42 795.669C1291.49 795.585 1291.55 795.522 1291.59 795.482L1292.39 796.126C1292.36 796.147 1292.3 796.2 1292.21 796.284C1292.12 796.364 1292.03 796.456 1291.95 796.56C1291.75 796.807 1291.62 797.07 1291.56 797.348C1291.51 797.622 1291.53 797.889 1291.62 798.148C1291.71 798.404 1291.87 798.624 1292.1 798.81L1295.31 801.42L1294.68 802.201ZM1299.03 797.055C1298.69 797.479 1298.27 797.766 1297.8 797.917C1297.32 798.065 1296.81 798.072 1296.27 797.937C1295.72 797.799 1295.18 797.512 1294.64 797.076C1294.11 796.642 1293.72 796.175 1293.48 795.673C1293.23 795.172 1293.14 794.671 1293.19 794.171C1293.24 793.67 1293.44 793.206 1293.78 792.778C1294.05 792.447 1294.32 792.231 1294.59 792.128C1294.85 792.022 1295.1 791.974 1295.32 791.986C1295.54 791.993 1295.72 792.004 1295.85 792.018L1295.9 791.952L1293.4 789.922L1294.04 789.141L1300.81 794.64L1300.2 795.394L1299.42 794.76L1299.34 794.853C1299.39 794.986 1299.44 795.162 1299.5 795.383C1299.55 795.601 1299.55 795.854 1299.5 796.139C1299.45 796.423 1299.29 796.729 1299.03 797.055ZM1298.41 796.38C1298.67 796.067 1298.8 795.736 1298.81 795.387C1298.82 795.037 1298.73 794.687 1298.53 794.338C1298.33 793.988 1298.03 793.657 1297.65 793.345C1297.27 793.037 1296.89 792.823 1296.52 792.703C1296.14 792.58 1295.79 792.563 1295.45 792.65C1295.12 792.736 1294.82 792.937 1294.56 793.255C1294.29 793.586 1294.15 793.93 1294.15 794.289C1294.14 794.643 1294.23 794.993 1294.43 795.338C1294.63 795.679 1294.91 795.994 1295.26 796.284C1295.63 796.577 1296 796.789 1296.39 796.919C1296.77 797.044 1297.14 797.068 1297.49 796.991C1297.84 796.91 1298.15 796.707 1298.41 796.38Z" fill="black"/>
</g>
<g id="banner-serv">
<path id="banners" d="M845.019 677.437L838.242 671.939L838.876 671.158L841.377 673.187L841.431 673.121C841.389 672.992 841.341 672.822 841.287 672.609C841.232 672.393 841.228 672.145 841.276 671.865C841.323 671.581 841.481 671.274 841.749 670.943C842.097 670.515 842.51 670.225 842.989 670.072C843.468 669.919 843.978 669.91 844.519 670.046C845.06 670.181 845.598 670.466 846.132 670.899C846.67 671.336 847.062 671.806 847.309 672.309C847.553 672.811 847.651 673.312 847.604 673.811C847.555 674.309 847.359 674.77 847.015 675.194C846.75 675.52 846.484 675.738 846.217 675.846C845.947 675.953 845.7 676.003 845.475 675.996C845.248 675.988 845.065 675.974 844.925 675.956L844.85 676.049L845.631 676.683L845.019 677.437ZM843.101 674.608C843.484 674.919 843.869 675.137 844.253 675.263C844.636 675.387 844.998 675.408 845.338 675.326C845.677 675.242 845.974 675.043 846.228 674.73C846.493 674.404 846.628 674.061 846.633 673.703C846.637 673.341 846.538 672.986 846.334 672.638C846.13 672.285 845.847 671.963 845.485 671.669C845.127 671.379 844.761 671.173 844.384 671.05C844.008 670.924 843.646 670.903 843.299 670.988C842.952 671.068 842.644 671.274 842.376 671.605C842.118 671.923 841.982 672.255 841.968 672.602C841.951 672.947 842.041 673.291 842.239 673.634C842.434 673.975 842.721 674.3 843.101 674.608ZM850.962 670.356C850.7 670.678 850.403 670.922 850.068 671.086C849.732 671.248 849.385 671.312 849.028 671.279C848.669 671.243 848.324 671.092 847.993 670.823C847.702 670.587 847.512 670.338 847.424 670.076C847.334 669.813 847.315 669.543 847.367 669.267C847.419 668.991 847.514 668.717 847.651 668.444C847.788 668.167 847.937 667.898 848.097 667.637C848.308 667.296 848.482 667.022 848.618 666.814C848.753 666.602 848.831 666.431 848.852 666.301C848.875 666.17 848.823 666.053 848.697 665.951L848.671 665.929C848.344 665.665 848.018 665.548 847.692 665.58C847.368 665.61 847.06 665.804 846.769 666.164C846.466 666.537 846.31 666.895 846.302 667.24C846.293 667.584 846.347 667.874 846.462 668.11L845.596 668.637C845.395 668.254 845.297 667.882 845.304 667.522C845.311 667.158 845.386 666.817 845.531 666.499C845.675 666.177 845.851 665.888 846.059 665.632C846.191 665.469 846.363 665.297 846.575 665.118C846.786 664.934 847.032 664.791 847.312 664.69C847.594 664.585 847.909 664.565 848.257 664.627C848.604 664.69 848.98 664.885 849.384 665.213L852.733 667.93L852.099 668.711L851.411 668.153L851.379 668.192C851.446 668.335 851.492 668.519 851.518 668.744C851.543 668.97 851.517 669.221 851.439 669.498C851.361 669.775 851.202 670.061 850.962 670.356ZM850.357 669.668C850.607 669.359 850.758 669.05 850.809 668.739C850.861 668.427 850.835 668.139 850.731 667.875C850.628 667.609 850.471 667.39 850.259 667.218L849.545 666.638C849.557 666.704 849.535 666.806 849.477 666.945C849.418 667.081 849.342 667.231 849.248 667.396C849.154 667.558 849.06 667.714 848.966 667.865C848.873 668.012 848.797 668.132 848.74 668.225C848.602 668.449 848.491 668.674 848.408 668.899C848.323 669.119 848.296 669.331 848.325 669.534C848.354 669.733 848.468 669.913 848.666 670.074C848.938 670.294 849.224 670.361 849.526 670.273C849.828 670.181 850.105 669.979 850.357 669.668ZM851.465 663.243L854.523 665.724L853.889 666.505L848.806 662.381L849.419 661.626L850.213 662.27L850.267 662.204C850.105 661.876 850.044 661.527 850.085 661.157C850.123 660.785 850.298 660.408 850.609 660.024C850.888 659.68 851.203 659.436 851.554 659.292C851.902 659.147 852.277 659.118 852.678 659.205C853.076 659.291 853.492 659.509 853.924 659.86L857.154 662.481L856.521 663.262L853.344 660.684C852.944 660.36 852.549 660.211 852.158 660.238C851.765 660.263 851.421 660.456 851.128 660.818C850.926 661.067 850.799 661.334 850.748 661.618C850.698 661.9 850.732 662.181 850.848 662.462C850.964 662.743 851.17 663.003 851.465 663.243ZM855.888 657.792L858.946 660.273L858.312 661.054L853.229 656.93L853.841 656.175L854.636 656.819L854.689 656.753C854.528 656.425 854.467 656.076 854.507 655.706C854.545 655.334 854.72 654.957 855.032 654.573C855.311 654.229 855.626 653.985 855.976 653.841C856.325 653.696 856.699 653.667 857.1 653.754C857.499 653.84 857.915 654.058 858.347 654.409L861.577 657.03L860.943 657.811L857.766 655.233C857.367 654.909 856.972 654.76 856.581 654.787C856.188 654.812 855.844 655.005 855.551 655.367C855.348 655.616 855.222 655.883 855.17 656.167C855.121 656.449 855.154 656.73 855.27 657.011C855.387 657.292 855.592 657.552 855.888 657.792ZM864.57 653.557C864.172 654.047 863.721 654.382 863.217 654.562C862.712 654.737 862.187 654.763 861.641 654.638C861.094 654.509 860.56 654.233 860.04 653.811C859.519 653.389 859.137 652.921 858.894 652.41C858.65 651.894 858.556 651.374 858.611 650.852C858.665 650.325 858.878 649.832 859.25 649.373C859.465 649.108 859.721 648.883 860.019 648.696C860.317 648.51 860.651 648.391 861.021 648.34C861.389 648.288 861.786 648.33 862.213 648.468C862.639 648.605 863.089 648.866 863.564 649.251L863.895 649.52L860.716 653.438L860.041 652.89L862.575 649.766C862.288 649.533 861.986 649.383 861.668 649.315C861.352 649.245 861.043 649.262 860.743 649.366C860.445 649.468 860.181 649.66 859.952 649.942C859.699 650.253 859.558 650.585 859.528 650.938C859.498 651.286 859.556 651.621 859.702 651.941C859.849 652.261 860.062 652.534 860.342 652.762L860.792 653.127C861.176 653.438 861.555 653.636 861.93 653.72C862.304 653.8 862.657 653.778 862.989 653.652C863.319 653.525 863.612 653.304 863.868 652.988C864.035 652.783 864.156 652.574 864.233 652.362C864.31 652.146 864.339 651.93 864.32 651.714C864.299 651.496 864.228 651.282 864.105 651.073L864.929 650.49C865.12 650.777 865.237 651.094 865.279 651.439C865.319 651.782 865.281 652.135 865.165 652.499C865.047 652.86 864.849 653.213 864.57 653.557ZM867.135 650.179L862.052 646.055L862.665 645.3L863.432 645.923L863.475 645.87C863.299 645.574 863.231 645.24 863.271 644.871C863.311 644.501 863.455 644.164 863.702 643.859C863.749 643.802 863.808 643.731 863.88 643.647C863.952 643.563 864.008 643.5 864.048 643.46L864.842 644.104C864.814 644.125 864.755 644.178 864.665 644.262C864.574 644.342 864.487 644.434 864.403 644.538C864.202 644.785 864.075 645.047 864.021 645.326C863.967 645.6 863.985 645.867 864.074 646.126C864.164 646.381 864.323 646.602 864.552 646.788L867.769 649.398L867.135 650.179ZM868.925 639.911L868.554 640.774C868.402 640.723 868.235 640.696 868.055 640.692C867.875 640.685 867.689 640.724 867.498 640.811C867.307 640.897 867.119 641.054 866.935 641.281C866.683 641.593 866.544 641.91 866.519 642.234C866.494 642.553 866.59 642.802 866.809 642.979C867.003 643.137 867.214 643.19 867.441 643.14C867.668 643.091 867.94 642.946 868.259 642.707L869.056 642.103C869.535 641.738 869.979 641.536 870.387 641.498C870.793 641.457 871.173 641.581 871.528 641.869C871.82 642.106 872.012 642.401 872.105 642.755C872.2 643.106 872.193 643.485 872.084 643.89C871.975 644.295 871.76 644.695 871.44 645.09C871.019 645.608 870.558 645.946 870.058 646.103C869.557 646.261 869.054 646.209 868.548 645.949L868.964 645.057C869.295 645.208 869.608 645.241 869.904 645.156C870.202 645.068 870.481 644.865 870.741 644.545C871.036 644.181 871.193 643.829 871.212 643.49C871.231 643.147 871.131 642.886 870.913 642.709C870.736 642.566 870.539 642.508 870.319 642.535C870.098 642.56 869.853 642.676 869.586 642.884L868.7 643.57C868.212 643.946 867.764 644.149 867.355 644.179C866.946 644.206 866.566 644.077 866.215 643.792C865.928 643.56 865.74 643.273 865.65 642.933C865.562 642.591 865.568 642.229 865.67 641.846C865.773 641.462 865.97 641.091 866.26 640.734C866.668 640.231 867.099 639.925 867.552 639.818C868.007 639.708 868.465 639.739 868.925 639.911Z" fill="black"/>
<g id="bn-el">
<circle id="Ellipse 26" opacity="0.5" cx="786.643" cy="604.816" r="67.4041" transform="rotate(-50.9458 786.643 604.816)" fill="#FF8585"/>
<g id="Vector 27">
<path d="M802.813 631.244L796.018 639.619L761.821 611.873L768.616 603.498L780.224 589.191L797.322 603.064L785.714 617.371L802.813 631.244Z" fill="#FFA4A4"/>
<path d="M768.616 603.498L761.821 611.873L796.018 639.619L802.813 631.244L785.714 617.371M768.616 603.498L785.714 617.371M768.616 603.498L780.224 589.191L797.322 603.064L785.714 617.371" stroke="#FFB8B8" stroke-width="0.5"/>
</g>
</g>
</g>
<g id="stars-c">
<circle id="Ellipse 33_4" cx="1010.97" cy="613.436" r="5" transform="rotate(-8.86007 1010.97 613.436)" fill="#F9D2D2"/>
<circle id="Ellipse 34_4" cx="1082.12" cy="569.958" r="5" transform="rotate(-8.86007 1082.12 569.958)" fill="#F9D2D2"/>
<circle id="Ellipse 35_4" cx="1143.17" cy="643.433" r="5" transform="rotate(-8.86007 1143.17 643.433)" fill="#F9D2D2"/>
<circle id="Ellipse 36_4" cx="1028.7" cy="506.428" r="5" transform="rotate(-8.86007 1028.7 506.428)" fill="#F9D2D2"/>
</g>
<g id="stars-b">
<circle id="Ellipse 33_5" cx="292.97" cy="623.436" r="5" transform="rotate(-8.86007 292.97 623.436)" fill="#F9D2D2"/>
<circle id="Ellipse 34_5" cx="364.123" cy="579.958" r="5" transform="rotate(-8.86007 364.123 579.958)" fill="#F9D2D2"/>
<circle id="Ellipse 35_5" cx="425.167" cy="653.433" r="5" transform="rotate(-8.86007 425.167 653.433)" fill="#F9D2D2"/>
<circle id="Ellipse 36_5" cx="310.7" cy="516.428" r="5" transform="rotate(-8.86007 310.7 516.428)" fill="#F9D2D2"/>
</g>
<g id="stars-a">
<circle id="Ellipse 33_6" cx="407.97" cy="1155.44" r="5" transform="rotate(-8.86007 407.97 1155.44)" fill="#F9D2D2"/>
<circle id="Ellipse 34_6" cx="479.123" cy="1111.96" r="5" transform="rotate(-8.86007 479.123 1111.96)" fill="#F9D2D2"/>
<circle id="Ellipse 35_6" cx="540.167" cy="1185.43" r="5" transform="rotate(-8.86007 540.167 1185.43)" fill="#F9D2D2"/>
<circle id="Ellipse 36_6" cx="425.7" cy="1048.43" r="5" transform="rotate(-8.86007 425.7 1048.43)" fill="#F9D2D2"/>
</g>
</g>
<defs>
<linearGradient id="paint0_linear_565_495" x1="970.341" y1="747.581" x2="813.641" y2="882.872" gradientUnits="userSpaceOnUse">
<stop stop-color="#E550A7"/>
<stop offset="0.531667" stop-color="#EE8561"/>
<stop offset="1" stop-color="#F7BB18"/>
</linearGradient>
<radialGradient id="paint1_angular_565_495" cx="0" cy="0" r="1" gradientUnits="userSpaceOnUse" gradientTransform="translate(910.577 850.036) rotate(90) scale(211.379)">
<stop offset="0.243937" stop-color="#E550A7"/>
<stop offset="0.932766" stop-color="#F7BB18"/>
</radialGradient>
<radialGradient id="paint2_angular_565_495" cx="0" cy="0" r="1" gradientUnits="userSpaceOnUse" gradientTransform="translate(910.577 850.035) rotate(90) scale(264.224)">
<stop offset="0.247982" stop-color="#FF0000"/>
<stop offset="0.732616" stop-color="#8F38C1"/>
</radialGradient>
<radialGradient id="paint3_angular_565_495" cx="0" cy="0" r="1" gradientUnits="userSpaceOnUse" gradientTransform="translate(910.576 850.037) rotate(90) scale(317.069)">
<stop offset="0.257178" stop-color="#E550A7"/>
<stop offset="1" stop-color="#6B69E5"/>
</radialGradient>
<radialGradient id="paint4_angular_565_495" cx="0" cy="0" r="1" gradientUnits="userSpaceOnUse" gradientTransform="translate(910.577 850.036) rotate(90) scale(369.914)">
<stop offset="0.495008" stop-color="#F7BB18"/>
<stop offset="1" stop-color="#103C4C"/>
</radialGradient>
<radialGradient id="paint5_angular_565_495" cx="0" cy="0" r="1" gradientUnits="userSpaceOnUse" gradientTransform="translate(910.578 850.036) rotate(90) scale(422.758)">
<stop offset="0.25082" stop-color="#6B69E5"/>
<stop offset="0.746984" stop-color="#8F38C1"/>
</radialGradient>
<radialGradient id="paint6_angular_565_495" cx="0" cy="0" r="1" gradientUnits="userSpaceOnUse" gradientTransform="translate(910.577 850.036) rotate(90) scale(475.603)">
<stop offset="0.322402" stop-color="#103C4C"/>
<stop offset="1" stop-color="#FF0000"/>
</radialGradient>
<radialGradient id="paint7_angular_565_495" cx="0" cy="0" r="1" gradientUnits="userSpaceOnUse" gradientTransform="translate(910.578 850.036) rotate(90) scale(528.448)">
<stop offset="0.726085" stop-color="#F7BB18"/>
<stop offset="1" stop-color="#E550A7"/>
</radialGradient>
<linearGradient id="paint8_linear_565_495" x1="1146.9" y1="1078.23" x2="1236.77" y2="1078.23" gradientUnits="userSpaceOnUse">
<stop stop-color="#103C4C"/>
<stop offset="1" stop-color="#6B69E5"/>
</linearGradient>
<linearGradient id="paint9_linear_565_495" x1="385.22" y1="864.926" x2="385.22" y2="954.798" gradientUnits="userSpaceOnUse">
<stop stop-color="#E550A7"/>
<stop offset="1" stop-color="#F7BB18"/>
</linearGradient>
<linearGradient id="paint10_linear_565_495" x1="379.423" y1="875.286" x2="401.223" y2="892.973" gradientUnits="userSpaceOnUse">
<stop stop-color="#9D9CFE" stop-opacity="0.11"/>
<stop offset="1" stop-color="#F7BB18" stop-opacity="0.4"/>
</linearGradient>
<linearGradient id="paint11_linear_565_495" x1="357.967" y1="905.297" x2="380.797" y2="923.82" gradientUnits="userSpaceOnUse">
<stop stop-color="#9D9CFE" stop-opacity="0.11"/>
<stop offset="1" stop-color="#F7BB18" stop-opacity="0.4"/>
</linearGradient>
<linearGradient id="paint12_linear_565_495" x1="403.329" y1="916.922" x2="413.306" y2="925.017" gradientUnits="userSpaceOnUse">
<stop stop-color="#9D9CFE" stop-opacity="0.11"/>
<stop offset="1" stop-color="#F7BB18" stop-opacity="0.4"/>
</linearGradient>
<linearGradient id="paint13_linear_565_495" x1="731.458" y1="1089.34" x2="731.458" y2="1269.08" gradientUnits="userSpaceOnUse">
<stop stop-color="#A3EE42"/>
<stop offset="1" stop-color="#3FE4D1"/>
</linearGradient>
<linearGradient id="paint14_linear_565_495" x1="747.869" y1="1129.74" x2="784.509" y2="1159.47" gradientUnits="userSpaceOnUse">
<stop stop-color="#02BEE8" stop-opacity="0.5"/>
<stop offset="1" stop-color="#56FD98" stop-opacity="0.8"/>
</linearGradient>
<radialGradient id="paint15_angular_565_495" cx="0" cy="0" r="1" gradientUnits="userSpaceOnUse" gradientTransform="translate(1201.41 746.908) scale(76.3913 48.3674)">
<stop stop-color="#8F38C1"/>
<stop offset="0.79" stop-color="#431A5B"/>
</radialGradient>
</defs>
</svg>
