<svg width="24" height="24" viewBox="0 0 24 24" fill="none" xmlns="http://www.w3.org/2000/svg">
<path d="M21.79 17.06L16.24 11.51L17.81 9.94002L14.06 6.19002L12.49 7.76002L6.93996 2.21002L2.20996 6.94002L7.75996 12.49L2.99996 17.25V21H6.74996L11.51 16.24L17.06 21.79L21.79 17.06ZM9.17996 11.07L5.03996 6.94002L6.93996 5.04002L8.20996 6.31002L7.01996 7.50002L8.42996 8.91002L9.61996 7.72002L11.07 9.17002L9.17996 11.07ZM12.93 14.82L14.83 12.92L16.28 14.37L15.09 15.56L16.5 16.97L17.69 15.78L18.96 17.05L17.06 18.95L12.93 14.82ZM15.133 5.12302L17.671 2.58402L21.419 6.33202L18.881 8.87102L15.133 5.12302Z" fill="black"/>
</svg>
