<svg width="24" height="24" viewBox="0 0 24 24" fill="none" xmlns="http://www.w3.org/2000/svg">
<path d="M6.26645 10.4364L6.00972 10.6932L6.17437 11.0168C7.66275 13.9418 10.0595 16.3276 12.982 17.825L13.3061 17.991L13.5636 17.7336L15.7636 15.5336C15.899 15.3981 16.099 15.3551 16.2678 15.413L16.2678 15.413L16.2732 15.4148C17.4436 15.8014 18.7066 16.01 20 16.01C20.2739 16.01 20.5 16.2361 20.5 16.51V20C20.5 20.2739 20.2739 20.5 20 20.5C10.8861 20.5 3.5 13.1139 3.5 4C3.5 3.72614 3.72614 3.5 4 3.5H7.5C7.77386 3.5 8 3.72614 8 4C8 5.30213 8.20815 6.55368 8.5939 7.7228C8.6492 7.90217 8.6082 8.09469 8.46645 8.23645L6.26645 10.4364Z" stroke="black"/>
</svg>
